HIERARCHY
ROOT Hips
{
	OFFSET 0.000000 0.000000 0.000000
	CHANNELS 6 Xposition Yposition Zposition Zrotation Yrotation Xrotation 
	JOINT LHipJoint
	{
		OFFSET 0.000000 0.000000 0.000000
		CHANNELS 3 Zrotation Yrotation Xrotation
		JOINT LeftUpLeg
		{
			OFFSET 1.363060 -1.794630 0.839290
			CHANNELS 3 Zrotation Yrotation Xrotation
			JOINT LeftLeg
			{
				OFFSET 2.448110 -6.726130 0.000000
				CHANNELS 3 Zrotation Yrotation Xrotation
				JOINT LeftFoot
				{
					OFFSET 2.562200 -7.039590 0.000000
					CHANNELS 3 Zrotation Yrotation Xrotation
					JOINT LeftToeBase
					{
						OFFSET 0.157640 -0.433110 2.322550
						CHANNELS 3 Zrotation Yrotation Xrotation
						End Site
						{
							OFFSET 0.000000 0.000000 0.000000
						}
					}
				}
			}
		}
	}
	JOINT RHipJoint
	{
		OFFSET 0.000000 0.000000 0.000000
		CHANNELS 3 Zrotation Yrotation Xrotation
		JOINT RightUpLeg
		{
			OFFSET -1.305520 -1.794630 0.839290
			CHANNELS 3 Zrotation Yrotation Xrotation
			JOINT RightLeg
			{
				OFFSET -2.542530 -6.985550 0.000000
				CHANNELS 3 Zrotation Yrotation Xrotation
				JOINT RightFoot
				{
					OFFSET -2.568260 -7.056230 0.000000
					CHANNELS 3 Zrotation Yrotation Xrotation
					JOINT RightToeBase
					{
						OFFSET -0.164730 -0.452590 2.363150
						CHANNELS 3 Zrotation Yrotation Xrotation
						End Site
						{
							OFFSET 0.000000 0.000000 0.000000
						}
					}
				}
			}
		}
	}
	JOINT LowerBack
	{
		OFFSET 0.000000 0.000000 0.000000
		CHANNELS 3 Zrotation Yrotation Xrotation
		JOINT Spine
		{
			OFFSET 0.028270 2.035590 -0.193380
			CHANNELS 3 Zrotation Yrotation Xrotation
			JOINT Spine1
			{
				OFFSET 0.056720 2.048850 -0.042750
				CHANNELS 3 Zrotation Yrotation Xrotation
				JOINT Neck
				{
					OFFSET 0.000000 0.000000 0.000000
					CHANNELS 3 Zrotation Yrotation Xrotation
					JOINT Neck1
					{
						OFFSET -0.054170 1.746240 0.172020
						CHANNELS 3 Zrotation Yrotation Xrotation
						JOINT Head
						{
							OFFSET 0.104070 1.761360 -0.123970
							CHANNELS 3 Zrotation Yrotation Xrotation
							End Site
							{
								OFFSET 0.000000 0.000000 0.000000
							}
						}
					}
				}
				JOINT LeftShoulder
				{
					OFFSET 0.000000 0.000000 0.000000
					CHANNELS 3 Zrotation Yrotation Xrotation
					JOINT LeftArm
					{
						OFFSET 3.362410 1.200890 -0.311210
						CHANNELS 3 Zrotation Yrotation Xrotation
						JOINT LeftForeArm
						{
							OFFSET 4.983000 -0.000000 -0.000000
							CHANNELS 3 Zrotation Yrotation Xrotation
							JOINT LeftHand
							{
								OFFSET 3.483560 -0.000000 -0.000000
								CHANNELS 3 Zrotation Yrotation Xrotation
								JOINT LeftFingerBase
								{
									OFFSET 0.000000 0.000000 0.000000
									CHANNELS 3 Zrotation Yrotation Xrotation
									JOINT LeftHandIndex1
									{
										OFFSET 0.715260 -0.000000 -0.000000
										CHANNELS 3 Zrotation Yrotation Xrotation
										End Site
										{
											OFFSET 0.000000 0.000000 0.000000
										}
									}
								}
								JOINT LThumb
								{
									OFFSET 0.000000 0.000000 0.000000
									CHANNELS 3 Zrotation Yrotation Xrotation
									End Site
									{
										OFFSET 0.000000 0.000000 0.000000
									}
								}
							}
						}
					}
				}
				JOINT RightShoulder
				{
					OFFSET 0.000000 0.000000 0.000000
					CHANNELS 3 Zrotation Yrotation Xrotation
					JOINT RightArm
					{
						OFFSET -3.136600 1.374050 -0.404650
						CHANNELS 3 Zrotation Yrotation Xrotation
						JOINT RightForeArm
						{
							OFFSET -5.241900 -0.000000 -0.000000
							CHANNELS 3 Zrotation Yrotation Xrotation
							JOINT RightHand
							{
								OFFSET -3.444170 -0.000000 -0.000000
								CHANNELS 3 Zrotation Yrotation Xrotation
								JOINT RightFingerBase
								{
									OFFSET 0.000000 0.000000 0.000000
									CHANNELS 3 Zrotation Yrotation Xrotation
									JOINT RightHandIndex1
									{
										OFFSET -0.622530 -0.000000 -0.000000
										CHANNELS 3 Zrotation Yrotation Xrotation
										End Site
										{
											OFFSET 0.000000 0.000000 0.000000
										}
									}
								}
								JOINT RThumb
								{
									OFFSET 0.000000 0.000000 0.000000
									CHANNELS 3 Zrotation Yrotation Xrotation
									End Site
									{
										OFFSET 0.000000 0.000000 0.000000
									}
								}
							}
						}
					}
				}
			}
		}
	}
}
MOTION
Frames: 11
Frame Time: 0.016667
-1.962049 18.089754 23.861141 2.205700 13.375126 0.982527 -14.551105 0.455306 -10.928174 -15.771039 -5.668404 -9.512312 2.454023 1.174421 5.332686 1.436349 16.522782 47.861399 0.000000 0.000000 0.000000 22.822319 -2.842603 9.893483 -5.767936 1.400968 -13.509059 13.814857 -12.366238 52.747982 33.020159 -62.264516 19.224757 0.000000 0.000000 0.000000 -6.150327 0.946412 -1.356701 16.139437 -7.052751 55.900018 -29.715079 -5.274035 -35.440849 -29.744965 7.371447 -37.470176 26.780153 5.062335 0.810782 0.000000 0.000000 0.000000 13.819881 -1.153633 8.216463 -71.130528 -7.999379 20.709794 -14.033915 -72.260369 1.204560 0.159837 -12.814383 0.601470 0.129054 -12.837874 0.000000 0.000000 0.000000 0.000000 0.000000 0.000000 0.000000 -14.394431 -22.466015 -2.730003 77.174715 21.459376 -6.751873 -18.994519 55.897419 -0.035154 -2.164594 1.963252 -0.017552 -2.164809 1.963284 -0.000000 0.000000 0.000000 0.000000 0.000000 0.000000 0.000000 
-2.019226 18.266669 24.059587 1.433910 14.916437 1.071253 -15.833310 0.401363 -9.040486 -13.218717 -6.430130 -11.318054 1.898262 0.988672 5.848976 1.505653 16.354226 48.401755 0.000000 0.000000 0.000000 24.878469 -0.755985 10.991155 -5.311455 3.258614 -13.557512 14.389669 -8.537470 53.249120 33.475832 -63.463031 23.793607 0.000000 0.000000 0.000000 -7.628997 -0.041316 -3.405401 19.676396 -10.217946 61.806505 -32.146489 -7.025627 -38.035734 -33.120779 8.035541 -39.737324 28.067993 5.847245 0.292035 0.000000 0.000000 0.000000 14.577258 -2.546343 6.965445 -71.058051 -8.652830 24.873261 -19.126577 -73.197792 1.358915 0.062249 -13.925967 0.677902 0.031408 -13.954339 0.000000 0.000000 0.000000 0.000000 0.000000 0.000000 0.000000 -14.423117 -23.637846 -3.536111 76.475618 21.644116 -6.232790 -19.138546 55.341028 -0.042737 -2.226433 1.852690 -0.021341 -2.226721 1.852682 -0.000000 0.000000 0.000000 0.000000 0.000000 0.000000 0.000000 
-2.067647 18.438978 24.255339 0.642714 17.129057 1.177412 -17.130664 0.197047 -7.316624 -10.754181 -6.967549 -12.873091 1.152486 0.733835 5.894313 1.577997 16.307209 49.157902 0.000000 0.000000 0.000000 26.663589 2.316917 12.434173 -4.901437 6.332391 -13.306159 15.255767 -4.067491 53.943542 34.143127 -65.423692 29.236038 0.000000 0.000000 0.000000 -8.872778 -1.279279 -5.034315 23.135845 -13.832778 66.580050 -34.624945 -9.013151 -40.077435 -36.270398 8.674572 -41.754541 29.103816 6.696454 -0.467830 0.000000 0.000000 0.000000 15.073448 -3.917833 5.700824 -70.550888 -9.339130 29.058746 -24.734099 -74.219154 1.524010 -0.036538 -14.891542 0.759636 -0.067952 -14.925727 0.000000 0.000000 0.000000 0.000000 0.000000 0.000000 0.000000 -14.641693 -24.717755 -4.167708 75.737132 21.717199 -5.715492 -18.821287 54.694347 -0.055783 -2.309803 1.739367 -0.027873 -2.310396 1.739184 -0.000000 0.000000 0.000000 0.000000 0.000000 0.000000 0.000000 
-2.103885 18.599409 24.446043 -0.294186 20.004045 1.284280 -18.367667 -0.176643 -5.852811 -8.389265 -7.370309 -14.191182 0.284842 0.421198 5.637253 1.613086 16.300058 49.976203 0.000000 0.000000 0.000000 27.830286 6.294131 14.126778 -5.280892 10.162330 -12.955028 17.279173 0.743840 55.357752 34.381693 -68.736517 34.098596 0.000000 0.000000 0.000000 -9.756205 -2.734607 -6.209277 26.665727 -17.813839 69.948843 -37.329647 -11.140439 -41.508562 -39.307592 9.290545 -43.515945 29.999753 7.601699 -1.434983 0.000000 0.000000 0.000000 15.238938 -5.277480 4.577578 -69.799273 -9.979415 33.185799 -29.702927 -75.833099 1.690129 -0.118801 -15.463390 0.842189 -0.153329 -15.504195 0.000000 0.000000 0.000000 0.000000 0.000000 0.000000 0.000000 -15.003253 -25.711606 -4.587304 74.977618 21.638880 -5.265516 -18.420691 54.006663 -0.072122 -2.399199 1.616864 -0.036059 -2.400227 1.616433 -0.000000 0.000000 0.000000 0.000000 0.000000 0.000000 0.000000 
-2.126985 18.747053 24.631727 -1.528276 23.014301 1.478720 -19.310062 -0.532731 -4.667050 -6.088092 -7.684833 -15.397610 -0.719391 0.043264 5.081379 1.625058 16.325916 50.823567 0.000000 0.000000 0.000000 28.011145 10.365661 15.842081 -7.070487 13.807996 -13.146063 21.864173 5.048292 57.819859 32.829213 -72.300123 36.291116 0.000000 0.000000 0.000000 -10.255577 -4.308690 -7.146188 30.310761 -21.969582 72.057739 -40.407494 -13.264917 -42.457989 -42.154818 9.863550 -45.137155 30.768201 8.534211 -2.523595 0.000000 0.000000 0.000000 15.065050 -6.527628 3.685330 -68.824889 -10.461849 37.388067 -33.173375 -78.301538 1.843406 -0.101802 -15.636396 0.918710 -0.140782 -15.683983 0.000000 0.000000 0.000000 0.000000 0.000000 0.000000 0.000000 -15.590323 -26.565123 -4.789197 74.395215 21.460076 -4.896228 -18.031146 53.145420 -0.086240 -2.471379 1.502109 -0.043132 -2.472751 1.501480 -0.000000 0.000000 0.000000 0.000000 0.000000 0.000000 0.000000 
-2.138501 18.881691 24.813114 -2.908191 25.366469 1.770567 -19.896375 -0.711225 -3.617920 -3.829085 -7.899254 -16.567996 -1.773629 -0.350700 4.321271 1.660932 16.409295 51.614219 0.000000 0.000000 0.000000 27.323092 13.380365 17.110161 -9.619574 16.358951 -14.221219 29.120885 8.142062 60.859603 29.595987 -74.520008 35.519985 0.000000 0.000000 0.000000 -10.354795 -5.557196 -8.018305 33.440430 -25.610054 73.522172 -43.268876 -15.150835 -43.196989 -44.526380 10.377514 -46.499727 31.252482 9.339521 -3.505005 0.000000 0.000000 0.000000 14.855717 -7.576495 2.806576 -68.028335 -10.896115 41.600017 -36.359055 -80.925746 2.000299 -0.098492 -15.583302 0.997444 -0.144643 -15.638697 -0.000000 0.000000 0.000000 0.000000 0.000000 0.000000 0.000000 -16.335495 -27.309423 -4.879444 74.251611 21.330853 -4.669809 -17.853467 51.728147 -0.084143 -2.473440 1.448851 -0.042064 -2.474540 1.448366 -0.000000 0.000000 0.000000 0.000000 0.000000 0.000000 0.000000 
-2.138228 19.002212 24.990490 -4.207896 26.820043 2.030362 -20.204656 -0.642485 -2.516916 -1.673102 -7.999090 -17.651456 -2.845959 -0.757680 3.334097 1.755723 16.567531 52.327835 0.000000 0.000000 0.000000 26.481420 15.238703 17.698354 -11.841830 17.852796 -15.731041 37.341077 10.322538 63.938061 26.663084 -75.723438 33.217676 0.000000 0.000000 0.000000 -10.444380 -6.593494 -8.651519 36.811877 -29.107953 74.059537 -46.691595 -16.909580 -43.232847 -46.848177 11.157948 -47.459409 31.568108 10.213221 -4.927074 0.000000 0.000000 0.000000 13.902358 -8.972201 1.790705 -65.965635 -9.814783 48.420000 -23.115991 -89.592413 2.100410 4.150087 -16.787309 1.040571 4.172165 -16.818988 -0.000000 0.000000 0.000000 0.000000 0.000000 0.000000 0.000000 -16.947837 -27.723551 -4.947060 74.167300 21.338372 -4.459530 -17.468958 50.278987 -0.084442 -2.477823 1.398499 -0.042204 -2.478798 1.398086 -0.000000 0.000000 0.000000 0.000000 0.000000 0.000000 0.000000 
-2.129223 19.110148 25.158505 -5.142312 27.590343 2.286948 -20.434910 -0.527890 -1.491081 0.182976 -7.973949 -18.533248 -3.812001 -1.079091 2.301831 1.900053 16.836680 52.955059 0.000000 0.000000 0.000000 25.943483 16.323844 17.744984 -13.316369 18.705804 -17.090152 44.307693 12.026772 66.566629 25.171281 -76.527341 30.723723 0.000000 0.000000 0.000000 -10.486206 -7.384608 -8.882667 40.054699 -32.004817 73.959620 -50.173655 -18.525702 -43.161209 -48.610475 12.120053 -48.058189 31.620581 10.997951 -6.262092 0.000000 0.000000 0.000000 12.482326 -10.221076 0.281359 -63.423675 -8.504711 50.257118 -177.736874 -82.084629 -178.110955 12.859795 -17.651589 0.908645 13.054629 -17.505987 -0.000000 0.000000 0.000000 0.000000 0.000000 0.000000 0.000000 -17.675674 -28.081743 -4.676947 74.302359 21.123816 -4.190685 -16.863344 49.208528 -0.086051 -2.517722 1.390899 -0.043005 -2.518689 1.390485 -0.000000 0.000000 0.000000 0.000000 0.000000 0.000000 0.000000 
-2.111193 19.204305 25.317030 -5.586510 28.077390 2.567763 -20.796529 -0.493107 -0.543412 1.712119 -7.871356 -19.196854 -4.661508 -1.319883 1.270828 2.050239 17.175850 53.482859 0.000000 0.000000 0.000000 25.954533 16.857812 17.434978 -13.898128 19.221126 -17.991625 48.570099 13.764486 68.779775 25.743521 -77.202775 28.528881 0.000000 0.000000 0.000000 -10.392438 -7.746256 -8.879591 43.048589 -33.831781 73.437465 -53.080549 -19.962726 -43.208808 -49.705966 13.083352 -48.263747 31.561156 11.600015 -7.149509 0.000000 0.000000 0.000000 11.200879 -11.060151 -1.489432 -62.001277 -8.242907 44.406449 -149.711235 -73.342227 -178.358021 23.357148 -17.971259 0.717161 23.742569 -17.436754 -0.000000 0.000000 0.000000 0.000000 0.000000 0.000000 0.000000 -18.628554 -28.753536 -3.936727 74.319112 20.371259 -3.816722 -15.980165 48.558362 -0.088669 -2.596338 1.431704 -0.044317 -2.597399 1.431213 -0.000000 0.000000 0.000000 0.000000 0.000000 0.000000 0.000000 
-2.090446 19.249183 25.474967 -5.248760 28.554280 2.716980 -21.228483 -0.511483 0.235529 2.413816 -7.792800 -19.348573 -5.285101 -1.505156 0.568527 2.012256 17.259367 53.470339 0.000000 0.000000 0.000000 26.946677 16.655825 16.883796 -12.808395 19.215786 -17.747073 47.685965 16.054878 70.784563 30.169225 -78.191431 27.118087 0.000000 0.000000 0.000000 -10.453856 -7.363022 -8.726340 45.262154 -33.455023 72.075618 -54.050798 -20.799813 -43.224748 -49.734175 14.012370 -47.774319 31.891700 12.021672 -7.514210 0.000000 0.000000 0.000000 10.870618 -11.309940 -3.378593 -62.804962 -8.857979 35.105021 -130.807235 -62.665733 -178.881018 34.607970 -18.004953 0.310812 35.209816 -16.850149 -0.000000 0.000000 0.000000 0.000000 0.000000 0.000000 0.000000 -19.601612 -29.914328 -2.379183 74.072662 18.693338 -3.348769 -14.674008 48.890897 -0.094632 -2.751053 1.583752 -0.047323 -2.752557 1.582949 -0.000000 0.000000 0.000000 0.000000 0.000000 0.000000 0.000000 
-2.067051 19.239013 25.632950 -4.199935 28.845606 2.501542 -21.714347 -0.442305 1.064512 2.470468 -7.674978 -18.917486 -5.744435 -1.653601 0.197655 1.762394 17.019332 52.820214 0.000000 0.000000 0.000000 29.314959 15.127285 15.859672 -9.229949 17.687580 -15.388966 39.133725 18.740077 71.914216 40.010190 -80.337876 27.973808 0.000000 0.000000 0.000000 -11.204685 -5.866734 -8.427335 46.769304 -29.855600 69.839992 -52.218063 -20.297241 -43.203146 -48.835370 14.992292 -46.332122 33.138825 12.533523 -8.003923 0.000000 0.000000 0.000000 12.597357 -10.546723 -5.586635 -67.892444 -10.295905 39.023780 -121.380762 -62.745990 178.681090 47.850433 -16.255158 -1.219374 48.800851 -14.163930 0.000000 0.000000 0.000000 0.000000 0.000000 0.000000 0.000000 -20.408205 -31.680942 0.263140 72.695891 15.760787 -3.079228 -12.998416 50.171177 -0.106815 -3.000948 1.895187 -0.053484 -3.003620 1.893623 -0.000000 0.000000 0.000000 0.000000 0.000000 0.000000 0.000000 
